<svg width="85" height="99" viewBox="0 0 85 99" fill="none" xmlns="http://www.w3.org/2000/svg">
<path d="M26.9211 2.00034L27.0103 2.49197C20.982 3.58563 15.6216 5.42958 11.3731 7.76815C7.11782 10.1105 4.01505 12.928 2.44359 15.9487L26.9211 2.00034ZM26.9211 2.00034L27.0103 2.49197C38.9463 0.326299 51.422 0.831332 61.6589 3.32715C66.7769 4.57493 71.3212 6.3169 74.9537 8.46047C78.5899 10.6062 81.2833 13.1368 82.7464 15.9487C82.8345 16.1181 82.9454 16.5105 83.0584 17.1694C83.1678 17.8073 83.2708 18.6393 83.3666 19.6425C83.558 21.6478 83.7181 24.3091 83.8464 27.4124C84.1029 33.6173 84.2313 41.5662 84.2313 49.518C84.2313 57.4698 84.1029 65.4187 83.8464 71.6236C83.7181 74.7269 83.558 77.3882 83.3666 79.3935C83.2708 80.3967 83.1678 81.2287 83.0584 81.8666C82.9454 82.5255 82.8345 82.9179 82.7464 83.0873C81.1459 86.1631 78.047 88.9776 73.7463 91.3084C69.4508 93.6364 63.9903 95.463 57.7222 96.5808C45.8079 98.7048 33.4449 98.1864 23.3167 95.6902C13.1539 93.1854 5.37748 88.7256 2.44359 83.0873C2.35549 82.9179 2.24458 82.5255 2.13157 81.8666M26.9211 2.00034L2.13157 81.8666M2.13157 81.8666C2.02217 81.2287 1.91921 80.3967 1.82344 79.3935M2.13157 81.8666L1.82344 79.3935M1.82344 79.3935C1.63202 77.3882 1.47192 74.7269 1.34364 71.6236M1.82344 79.3935L1.34364 71.6236M1.34364 71.6236C1.08714 65.4187 0.958751 57.4698 0.958751 49.518M1.34364 71.6236L0.958751 49.518M0.958751 49.518C0.958751 41.5662 1.08714 33.6173 1.34364 27.4124M0.958751 49.518L1.34364 27.4124M1.34364 27.4124C1.47192 24.3091 1.63202 21.6478 1.82344 19.6425M1.34364 27.4124L1.82344 19.6425M1.82344 19.6425C1.91921 18.6393 2.02217 17.8073 2.13157 17.1694M1.82344 19.6425L2.13157 17.1694M2.13157 17.1694C2.24458 16.5105 2.35548 16.1181 2.44357 15.9488L2.13157 17.1694ZM55.4621 5.05946L55.4621 5.05945C42.9162 3.0243 28.4144 4.2186 17.7677 8.18038C14.3944 9.4353 11.005 11.5816 8.45448 13.8499C7.17862 14.9845 6.09997 16.1609 5.33623 17.2851C4.58087 18.3969 4.095 19.514 4.095 20.518C4.095 21.5141 4.58143 22.6272 5.3339 23.7355C6.09514 24.8568 7.16911 26.0323 8.43628 27.1658C10.9692 29.4314 14.3252 31.5746 17.6336 32.8056L17.8056 32.3434L17.6337 32.8056C27.6233 36.5221 39.8545 37.654 50.8945 36.5592C61.9126 35.4665 71.8611 32.1433 77.1975 26.8366C78.2745 25.7658 79.2361 24.5586 79.9319 23.4519C80.2798 22.8985 80.5662 22.3626 80.7671 21.8749C80.9645 21.3959 81.095 20.9266 81.095 20.518C81.095 18.9025 80.2737 17.2672 78.9171 15.7171C77.5553 14.1612 75.614 12.6437 73.2713 11.2533C68.5845 8.4715 62.2207 6.1564 55.4621 5.05946ZM7.99243 46.8365L8.345 46.482L7.99244 46.8365C11.4173 50.2422 16.6255 52.764 22.6721 54.4362C28.7268 56.1106 35.6651 56.945 42.595 56.945C49.5249 56.945 56.4632 56.1106 62.5179 54.4362C68.5645 52.764 73.7727 50.2422 77.1976 46.8365L76.845 46.482L77.1976 46.8365C78.9803 45.0637 80.0073 43.9851 80.5397 42.4943C81.0632 41.0285 81.095 39.1974 81.095 35.981C81.095 34.3762 81.0894 33.1448 81.0541 32.2287C81.0195 31.3333 80.9559 30.6729 80.8115 30.2534C80.7395 30.0442 80.618 29.8036 80.3832 29.6592C80.1205 29.4976 79.844 29.5299 79.6359 29.6056C79.4391 29.6773 79.248 29.8055 79.0732 29.9402C78.8926 30.0794 78.6943 30.2536 78.4825 30.4453C76.9206 31.859 73.691 33.5489 69.828 35.0672C65.9835 36.5781 61.5805 37.8926 57.7223 38.5808C42.6727 41.2635 25.1325 39.6503 14.1151 34.6064C12.5444 33.8872 10.9176 33.0536 9.56405 32.291C8.19445 31.5194 7.14949 30.8452 6.70749 30.4453C6.49566 30.2535 6.29741 30.0794 6.1168 29.9402C5.942 29.8055 5.75094 29.6773 5.55411 29.6056C5.34602 29.5299 5.06947 29.4976 4.80682 29.6592C4.57202 29.8036 4.45046 30.0442 4.37846 30.2534C4.23412 30.6729 4.17045 31.3333 4.13593 32.2287C4.10062 33.1448 4.095 34.3762 4.095 35.981C4.095 39.1974 4.12679 41.0285 4.65025 42.4943C5.18267 43.9851 6.20967 45.0637 7.99243 46.8365ZM57.7223 58.5808C42.6727 61.2635 25.1325 59.6503 14.1151 54.6064C12.5444 53.8872 10.9176 53.0536 9.56405 52.291C8.19449 51.5194 7.14956 50.8453 6.70753 50.4453C6.49569 50.2536 6.29742 50.0794 6.1168 49.9402C5.942 49.8055 5.75094 49.6773 5.55411 49.6056C5.34602 49.5299 5.06947 49.4976 4.80682 49.6592C4.57202 49.8036 4.45046 50.0442 4.37846 50.2534C4.23412 50.6729 4.17045 51.3333 4.13593 52.2287C4.10062 53.1448 4.095 54.3762 4.095 55.981C4.095 59.1974 4.12679 61.0285 4.65025 62.4943C5.18267 63.9851 6.20967 65.0637 7.99243 66.8365C11.4173 70.2422 16.6255 72.764 22.6721 74.4362C28.7268 76.1106 35.6651 76.945 42.595 76.945C49.5249 76.945 56.4632 76.1106 62.5179 74.4362C68.5645 72.764 73.7727 70.2422 77.1976 66.8365C78.9803 65.0637 80.0073 63.9851 80.5397 62.4943C81.0632 61.0285 81.095 59.1974 81.095 55.981C81.095 54.3762 81.0894 53.1448 81.0541 52.2287C81.0195 51.3333 80.9559 50.6729 80.8115 50.2534C80.7395 50.0442 80.618 49.8036 80.3832 49.6592C80.1205 49.4976 79.844 49.5299 79.6359 49.6056C79.4391 49.6773 79.248 49.8055 79.0732 49.9402C78.8926 50.0794 78.6943 50.2536 78.4825 50.4453C76.9206 51.859 73.691 53.5489 69.828 55.0672C65.9835 56.5781 61.5805 57.8926 57.7223 58.5808ZM71.0749 74.6064C63.4666 78.0894 53.0471 79.8447 42.595 79.8447C32.1429 79.8447 21.7234 78.0894 14.1151 74.6064C12.5444 73.8872 10.9176 73.0536 9.56405 72.291C8.19445 71.5194 7.14949 70.8452 6.70749 70.4453C6.49599 70.2539 6.29988 70.0811 6.12207 69.9408C5.94857 69.804 5.76725 69.6776 5.58585 69.5977C5.40632 69.5187 5.15201 69.4528 4.88643 69.5578C4.6213 69.6625 4.47563 69.8858 4.39249 70.0806C4.2346 70.4507 4.17102 71.0336 4.13651 71.7863C4.10078 72.5656 4.095 73.6162 4.095 74.981C4.095 77.633 4.15901 79.2442 4.70366 80.6242C5.25152 82.0123 6.26722 83.1213 7.99244 84.8365C11.4173 88.2422 16.6255 90.764 22.6721 92.4362C28.7268 94.1106 35.6651 94.945 42.595 94.945C49.5249 94.945 56.4632 94.1106 62.5179 92.4362C68.5645 90.764 73.7727 88.2422 77.1975 84.8366C78.9228 83.1213 79.9385 82.0123 80.4863 80.6242C81.031 79.2442 81.095 77.633 81.095 74.981C81.095 73.6162 81.0892 72.5656 81.0535 71.7863C81.019 71.0336 80.9554 70.4507 80.7975 70.0806C80.7144 69.8858 80.5687 69.6625 80.3036 69.5578C80.038 69.4528 79.7837 69.5187 79.6041 69.5977C79.4227 69.6776 79.2414 69.804 79.0679 69.9408C78.8901 70.0811 78.694 70.2539 78.4825 70.4453C78.0405 70.8452 76.9956 71.5194 75.626 72.291C74.2724 73.0536 72.6456 73.8872 71.0749 74.6064Z" fill="white" stroke="white"/>
</svg>
